HIERARCHY
ROOT Hips
{
  OFFSET -10.376 39.2435 -10.9941
  CHANNELS 6 Xposition Yposition Zposition Zrotation Xrotation Yrotation
  JOINT LeftHip
  {
    OFFSET 3.43 1.20792e-013 -1.86517e-014
    CHANNELS 6 Xposition Yposition Zposition Zrotation Xrotation Yrotation
    JOINT LeftKnee
    {
      OFFSET 1.06581e-014 -18.47 4.44089e-015
      CHANNELS 6 Xposition Yposition Zposition Zrotation Xrotation Yrotation
      JOINT LeftAnkle
      {
        OFFSET -1.06581e-014 -17.95 -3.55271e-015
        CHANNELS 6 Xposition Yposition Zposition Zrotation Xrotation Yrotation
        End Site
        {
          OFFSET 0 -3.12 0
        }
      }
    }
  }
  JOINT RightHip
  {
    OFFSET -3.43 0 -5.32907e-015
    CHANNELS 6 Xposition Yposition Zposition Zrotation Xrotation Yrotation
    JOINT RightKnee
    {
      OFFSET 5.32907e-015 -18.47 2.70894e-014
      CHANNELS 6 Xposition Yposition Zposition Zrotation Xrotation Yrotation
      JOINT RightAnkle
      {
        OFFSET 7.99361e-015 -17.95 1.06581e-014
        CHANNELS 6 Xposition Yposition Zposition Zrotation Xrotation Yrotation
        End Site
        {
          OFFSET 0 -3.12 0
        }
      }
    }
  }
  JOINT Chest
  {
    OFFSET 0 4.57 -1.33227e-014
    CHANNELS 6 Xposition Yposition Zposition Zrotation Xrotation Yrotation
    JOINT Chest2
    {
      OFFSET 0 6.57 -1.11022e-015
      CHANNELS 6 Xposition Yposition Zposition Zrotation Xrotation Yrotation
      JOINT LeftCollar
      {
        OFFSET 1.06 4.19 1.76
        CHANNELS 6 Xposition Yposition Zposition Zrotation Xrotation Yrotation
        JOINT LeftShoulder
        {
          OFFSET 5.81 2.13163e-014 1.77636e-014
          CHANNELS 6 Xposition Yposition Zposition Zrotation Xrotation Yrotation
          JOINT LeftElbow
          {
            OFFSET -7.10543e-015 -12.08 -3.90799e-014
            CHANNELS 6 Xposition Yposition Zposition Zrotation Xrotation Yrotation
            JOINT LeftWrist
            {
              OFFSET -7.10543e-015 -9.82 1.22125e-015
              CHANNELS 6 Xposition Yposition Zposition Zrotation Xrotation Yrotation
              End Site
              {
                OFFSET 0 -7.37 0
              }
            }
          }
        }
      }
      JOINT RightCollar
      {
        OFFSET -1.06 4.19 1.76
        CHANNELS 6 Xposition Yposition Zposition Zrotation Xrotation Yrotation
        JOINT RightShoulder
        {
          OFFSET -6.06 7.10543e-014 2.93099e-014
          CHANNELS 6 Xposition Yposition Zposition Zrotation Xrotation Yrotation
          JOINT RightElbow
          {
            OFFSET 3.90799e-014 -11.08 -2.13163e-014
            CHANNELS 6 Xposition Yposition Zposition Zrotation Xrotation Yrotation
            JOINT RightWrist
            {
              OFFSET -7.10543e-015 -9.82 2.66454e-015
              CHANNELS 6 Xposition Yposition Zposition Zrotation Xrotation Yrotation
              End Site
              {
                OFFSET 0 -7.14001 0
              }
            }
          }
        }
      }
      JOINT Neck
      {
        OFFSET -4.9738e-014 4.05 -7.54952e-015
        CHANNELS 6 Xposition Yposition Zposition Zrotation Xrotation Yrotation
        JOINT Head
        {
          OFFSET 3.55271e-015 5.19 -3.55271e-015
          CHANNELS 6 Xposition Yposition Zposition Zrotation Xrotation Yrotation
          End Site
          {
            OFFSET 0 4.14001 0
          }
        }
      }
    }
  }
}
MOTION
Frames:	7
Frame Time:	0.0333333
4.73972 39.8013 -9.85125 -1.57625 3.30428 -29.5772 3.43 -4.27436e-015 -1.86517e-014 5.26028 -10.659 6.1566 1.06581e-014 -18.47 4.44089e-015 0.308818 15.7716 25.5934 -1.06581e-014 -17.95 -3.55271e-015 -4.52068 -5.61355 -0.221841 -3.43 2.23335e-013 -5.32907e-015 -10.1547 -3.5339 -9.49397 5.32907e-015 -18.47 -2.02702e-012 0.798316 15.7115 -17.186 7.99361e-015 -17.95 -1.17117e-012 15.1866 2.87937 -0.382625 0 4.57 -1.33227e-014 -0.101421 1.75648 1.59662 0 6.57 -1.11022e-015 -0.18428 1.59918 1.4277 1.06 4.19 1.76 -4.16078 0.942727 -6.64282 5.81 -3.29526e-012 -1.21076e-013 35.4575 -15.5293 9.26663 -1.11717e-012 -12.08 3.81982e-013 -5.84551 -56.2082 -20.2849 -7.10543e-015 -9.82 1.22125e-015 -1.33731 14.6045 0.170881 -1.06 4.19 1.76 10.544 2.00067 12.2202 -6.06 2.64972e-012 2.93099e-014 -36.8394 14.31 21.1629 -7.50226e-012 -11.08 -3.05462e-013 -38.8556 -79.185 -28.2924 -7.10543e-015 -9.82 2.66454e-015 1.71549 13.8519 -0.208799 -4.9738e-014 4.05 -7.54952e-015 -0.160287 12.0242 9.15909 3.55271e-015 5.19 -3.55271e-015 0.213539 -5.66061 8.42043 
4.44742 39.7632 -9.89336 -1.10791 3.07024 -30.4039 3.43 -5.06817e-014 -1.86517e-014 5.23171 -10.4412 6.15586 1.06581e-014 -18.47 4.44089e-015 0.340613 15.7921 26.1945 -1.06581e-014 -17.95 -3.55271e-015 -5.12346 -5.49612 -0.245976 -3.43 1.09371e-013 -5.32907e-015 -10.2408 -0.994981 -8.82465 5.32907e-015 -18.47 -2.02839e-012 0.0163317 8.92909 -16.8399 7.99361e-015 -17.95 -1.1552e-012 14.6338 4.32614 -0.555754 0 4.57 -1.33227e-014 -0.189669 1.77208 1.5846 0 6.57 -1.11022e-015 -0.265529 1.61291 1.41124 1.06 4.19 1.76 -3.85186 0.910077 -6.47625 5.81 -3.3588e-012 -1.16855e-013 33.8262 -12.6979 8.96671 -1.10523e-012 -12.08 3.74299e-013 -6.16571 -59.2615 -21.1788 -7.10543e-015 -9.82 1.22125e-015 -2.0688 15.0347 0.273253 -1.06 4.19 1.76 10.491 1.98929 12.175 -6.06 2.63865e-012 2.93099e-014 -36.8502 14.3817 22.6685 -7.47623e-012 -11.08 -2.78304e-013 -58.6549 -80.9516 -47.5108 -7.10543e-015 -9.82 2.66454e-015 2.10273 14.5862 -0.267792 -4.9738e-014 4.05 -7.54952e-015 0.0967601 12.0426 9.17895 3.55271e-015 5.19 -3.55271e-015 0.0611696 -5.81792 8.56078 
4.08566 39.7207 -9.99764 -0.432222 2.81381 -31.2731 3.43 -1.48326e-013 -1.86517e-014 5.12603 -10.2248 6.13965 1.06581e-014 -18.47 4.44089e-015 0.352065 15.5146 27.2453 -1.06581e-014 -17.95 -3.55271e-015 -5.75836 -5.08972 -0.25612 -3.43 -6.88685e-014 -5.32907e-015 -10.4052 -0.0391707 -8.2646 5.32907e-015 -18.47 -2.02969e-012 -0.639139 5.60876 -16.0826 7.99361e-015 -17.95 -1.13902e-012 14.2638 4.34117 -0.543598 0 4.57 -1.33227e-014 -0.390105 1.82967 1.48187 0 6.57 -1.11022e-015 -0.444994 1.6645 1.3035 1.06 4.19 1.76 -4.48399 0.959617 -6.30463 5.81 -3.42075e-012 -1.12583e-013 33.2212 -9.26952 8.89309 -1.09094e-012 -12.08 3.58876e-013 -6.54823 -62.771 -21.8597 -7.10543e-015 -9.82 1.22125e-015 -3.11074 16.0872 0.43822 -1.06 4.19 1.76 10.4645 1.98438 12.1612 -6.06 2.62705e-012 2.93099e-014 -36.4738 14.1024 23.819 -7.44967e-012 -11.08 -2.51769e-013 -82.9846 -81.3136 -70.8628 -7.10543e-015 -9.82 2.66454e-015 2.93926 15.692 -0.411764 -4.9738e-014 4.05 -7.54952e-015 0.000281215 11.732 9.5157 3.55271e-015 5.19 -3.55271e-015 0.614397 -5.60587 8.77389 
3.6566 39.6558 -10.1069 0.443614 2.4823 -32.0773 3.43 -2.44527e-013 -1.86517e-014 4.83047 -10.095 5.92775 1.06581e-014 -18.47 4.44089e-015 0.441732 15.2502 28.3867 -1.06581e-014 -17.95 -3.55271e-015 -6.49414 -4.59364 -0.260699 -3.43 -3.08009e-013 -5.32907e-015 -10.5812 -0.0601178 -8.04222 5.32907e-015 -18.47 -2.03092e-012 -1.04862 5.46106 -16.7125 7.99361e-015 -17.95 -1.1226e-012 14.0077 1.66097 -0.204582 0 4.57 -1.33227e-014 -0.806757 1.66122 1.37907 0 6.57 -1.11022e-015 -0.818912 1.51005 1.18414 1.06 4.19 1.76 -4.63576 0.97051 -6.24292 5.81 -3.48111e-012 -1.08262e-013 31.2966 -5.33865 10.109 -1.0744e-012 -12.08 3.35163e-013 -6.5796 -65.4694 -25.5964 -7.10543e-015 -9.82 1.22125e-015 -7.07655 15.344 0.95117 -1.06 4.19 1.76 10.4232 1.97411 12.1094 -6.06 2.61491e-012 2.93099e-014 -35.3917 14.2556 24.5454 -7.42256e-012 -11.08 -2.25873e-013 -104.635 -80.4115 -89.1241 -7.10543e-015 -9.82 2.66454e-015 4.91974 17.8755 -0.770427 -4.9738e-014 4.05 -7.54952e-015 0.225106 11.9201 9.79113 3.55271e-015 5.19 -3.55271e-015 0.588842 -5.94542 9.19843 
3.19353 39.6016 -10.2842 1.23025 2.15371 -33.3362 3.43 8.83182e-014 -1.86517e-014 4.79325 -9.64544 5.95176 1.06581e-014 -18.47 4.44089e-015 0.475982 14.577 29.5544 -1.06581e-014 -17.95 -3.55271e-015 -7.22761 -3.89583 -0.246043 -3.43 -3.48995e-013 -5.32907e-015 -10.4911 -0.149613 -7.79873 5.32907e-015 -18.47 -2.03208e-012 -1.19167 5.34802 -17.0414 7.99361e-015 -17.95 -1.10597e-012 13.3428 -0.815415 0.0942868 0 4.57 -1.33227e-014 -1.23991 1.55638 1.39538 0 6.57 -1.11022e-015 -1.21308 1.41405 1.17245 1.06 4.19 1.76 -4.62657 0.981935 -6.58265 5.81 -3.5399e-012 -1.03891e-013 28.6108 -0.390092 13.0913 -1.05575e-012 -12.08 3.02608e-013 -6.5826 -68.2727 -31.3389 -7.10543e-015 -9.82 1.22125e-015 -11.0829 14.3807 1.40424 -1.06 4.19 1.76 10.3831 1.96047 12.0173 -6.06 2.60224e-012 2.93099e-014 -33.8699 13.9726 25.6965 -7.39494e-012 -11.08 -2.00636e-013 -115.723 -79.0292 -98.0469 -7.10543e-015 -9.82 2.66454e-015 5.22069 18.4875 -0.850205 -4.9738e-014 4.05 -7.54952e-015 0.16638 12.233 10.4259 3.55271e-015 5.19 -3.55271e-015 1.57118 -6.84536 9.69121 
2.69127 39.5548 -10.5088 1.79657 1.66069 -34.5355 3.43 2.81265e-013 -1.86517e-014 4.75082 -8.76464 5.91041 1.06581e-014 -18.47 4.44089e-015 0.717622 13.5817 30.7089 -1.06581e-014 -17.95 -3.55271e-015 -7.99973 -3.01188 -0.210555 -3.43 -3.17962e-013 -5.32907e-015 -10.1153 -0.304097 -7.5245 5.32907e-015 -18.47 -2.03316e-012 -1.0937 4.99701 -19.6871 7.99361e-015 -17.95 -1.08911e-012 12.1842 -1.89908 0.205361 0 4.57 -1.33227e-014 -1.54644 1.67393 1.37045 0 6.57 -1.11022e-015 -1.4897 1.5215 1.12739 1.06 4.19 1.76 -4.60768 0.968604 -6.26084 5.81 -3.59713e-012 -9.94697e-014 25.3567 3.83897 15.5703 -1.0351e-012 -12.08 2.6066e-013 -6.55814 -69.8322 -34.3308 -7.10543e-015 -9.82 1.22125e-015 -12.2076 14.0997 1.51491 -1.06 4.19 1.76 10.4297 1.96724 12.021 -6.06 2.58904e-012 2.93099e-014 -32.4055 13.685 26.2016 -7.36679e-012 -11.08 -1.76074e-013 -122.316 -77.8384 -103.897 -7.10543e-015 -9.82 2.66454e-015 5.70697 18.2822 -0.92508 -4.9738e-014 4.05 -7.54952e-015 0.302346 12.4116 10.7612 3.55271e-015 5.19 -3.55271e-015 1.2784 -7.2232 10.1395 
2.16842 39.5233 -10.7783 2.11361 1.15526 -35.5184 3.43 7.35626e-014 -1.86517e-014 4.946 -7.53812 6.04672 1.06581e-014 -18.47 4.44089e-015 0.941612 12.1156 31.4788 -1.06581e-014 -17.95 -3.55271e-015 -8.60903 -1.90027 -0.143147 -3.43 -2.34477e-013 -5.32907e-015 -9.68495 -0.786455 -7.152 5.32907e-015 -18.47 -2.03416e-012 -1.00311 5.54401 -21.3527 7.99361e-015 -17.95 -1.07203e-012 11.2068 -1.83505 0.179592 0 4.57 -1.33227e-014 -1.64811 1.99057 1.32966 0 6.57 -1.11022e-015 -1.57901 1.80947 1.07975 1.06 4.19 1.76 -4.94092 0.989264 -6.05378 5.81 -3.65282e-012 -9.4998e-014 22.2316 7.54218 17.8219 -1.01257e-012 -12.08 2.08768e-013 -6.22603 -70.7631 -34.3314 -7.10543e-015 -9.82 1.22125e-015 -11.7994 14.9153 1.55125 -1.06 4.19 1.76 10.6277 2.00527 12.1417 -6.06 2.57533e-012 2.93099e-014 -30.8243 13.5949 26.2207 -7.33812e-012 -11.08 -1.52207e-013 -125.767 -76.9963 -109.455 -7.10543e-015 -9.82 2.66454e-015 3.96556 16.5 -0.572615 -4.9738e-014 4.05 -7.54952e-015 0.215415 12.3411 11.2091 3.55271e-015 5.19 -3.55271e-015 1.28369 -7.26462 10.5296 
